<?xml version="1.0" standalone="no"?>
<!DOCTYPE svg PUBLIC "-//W3C//DTD SVG 1.1//EN" "http://www.w3.org/Graphics/SVG/1.1/DTD/svg11.dtd">
<svg xmlns="http://www.w3.org/2000/svg">
<metadata>Copyright (C) 2017 by original authors @ fontello.com</metadata>
<defs>
<font id="scenery_icons" horiz-adv-x="1000" >
<font-face font-family="scenery_icons" font-weight="400" font-stretch="normal" units-per-em="1000" ascent="850" descent="-150" />
<missing-glyph horiz-adv-x="1000" />
<glyph glyph-name="tree5" unicode="&#x30;" d="M752 119l46 6-84 157 45 5-118 163-118-163 45-5-84-157 46-6-49-133 160-8 160 8-49 133z" horiz-adv-x="1000" />

<glyph glyph-name="treetrunk1" unicode="&#x31;" d="M252 257h-79v169h79v-169z" horiz-adv-x="1000" />

<glyph glyph-name="treetrunk2" unicode="&#x32;" d="M832 259h-80v168h80v-168z" horiz-adv-x="1000" />

<glyph glyph-name="treetrunk3" unicode="&#x33;" d="M535 125h-80v168h80v-168z" horiz-adv-x="1000" />

<glyph glyph-name="treetrunk4" unicode="&#x34;" d="M344-36h-80v169h80v-169z" horiz-adv-x="1000" />

<glyph glyph-name="treetrunk5" unicode="&#x35;" d="M681-106h-80v168h80v-168z" horiz-adv-x="1000" />

<glyph glyph-name="water" unicode="&#x36;" d="M870 729c-69 0-125 23-125 52 0-29-56-52-125-52s-125 23-125 52c0-29-56-52-125-52s-125 23-125 52c0-29-56-52-125-52s-125 23-125 52v-50c0-29 56-52 125-52s125 23 125 52c0-29 56-52 125-52s125 23 125 52c0-29 56-52 125-52 69 0 125 23 125 52 0-29 56-52 125-52 69 0 125 23 125 52v50c0-29-56-52-125-52z m0-250c-69 0-125 23-125 52 0-29-56-52-125-52s-125 23-125 52c0-29-56-52-125-52s-125 23-125 52c0-29-56-52-125-52s-125 23-125 52v-50c0-29 56-52 125-52s125 23 125 52c0-29 56-52 125-52s125 23 125 52c0-29 56-52 125-52 69 0 125 23 125 52 0-29 56-52 125-52 69 0 125 23 125 52v50c0-29-56-52-125-52z m0-250c-69 0-125 23-125 52 0-29-56-52-125-52s-125 23-125 52c0-29-56-52-125-52s-125 23-125 52c0-29-56-52-125-52s-125 23-125 52v-50c0-29 56-52 125-52s125 23 125 52c0-29 56-52 125-52s125 23 125 52c0-29 56-52 125-52 69 0 125 23 125 52 0-29 56-52 125-52 69 0 125 23 125 52v50c0-29-56-52-125-52z m0-250c-69 0-125 23-125 52 0-29-56-52-125-52s-125 23-125 52c0-29-56-52-125-52s-125 23-125 52c0-29-56-52-125-52s-125 23-125 52v-50c0-29 56-52 125-52s125 23 125 52c0-29 56-52 125-52s125 23 125 52c0-29 56-52 125-52 69 0 125 23 125 52 0-29 56-52 125-52 69 0 125 23 125 52v50c0-29-56-52-125-52z" horiz-adv-x="1000" />

<glyph glyph-name="grass1" unicode="&#x61;" d="M323 251c0 0-13 21 17 59-43 6-93-52-93-52s-37 43-84 47c23-49 29-61 29-61s-48 28-117 0c50-4 79-33 93-52 27 1 43-9 43-9s-4 9-21 46c35-3 63-36 63-36s37 44 70 39c-23-28-13-44-13-44s18 11 39 14c10 20 30 49 60 66-40 10-86-17-86-17z" horiz-adv-x="1000" />

<glyph glyph-name="grass2" unicode="&#x62;" d="M618 464c0 0-13 22 17 59-43 6-93-52-93-52s-37 43-84 47c23-48 29-61 29-61s-48 29-117 0c50-4 79-33 93-51 27 0 43-10 43-10s-4 10-21 46c35-3 63-35 63-35s37 43 70 39c-23-28-13-44-13-44s18 10 39 13c10 21 30 49 60 66-40 10-86-17-86-17z" horiz-adv-x="1000" />

<glyph glyph-name="grass3" unicode="&#x63;" d="M805 104c0 0-13 22 17 59-43 6-93-52-93-52s-37 43-84 47c22-48 28-61 28-61s-47 29-116 0c49-4 79-33 93-51 27 0 43-10 43-10s-5 10-22 46c36-3 64-35 64-35s37 43 70 39c-23-28-13-44-13-44s17 10 39 13c10 21 29 49 60 66-40 10-86-17-86-17z" horiz-adv-x="1000" />

<glyph glyph-name="mountain" unicode="&#x64;" d="M738 425l-101-225-243 541-347-772h486 209 201l-205 456z" horiz-adv-x="1000" />

<glyph glyph-name="mountain_snow" unicode="&#x65;" d="M394 741l-147-326 20-20h0l66 65 65-65 65 65 65-65 15 15-149 331z m423-492l-79 176-78-175 14-14h0l65 65 65-65 13 13z" horiz-adv-x="1000" />

<glyph glyph-name="shore_b" unicode="&#x66;" d="M995-45v-100h-1000v100h105c-6 9-12 21-14 36 20-17 36-29 46-36h239c1 12-2 27-11 46 18 3 41-23 58-46h19c0 14 5 35 21 55 0-25 1-43 2-55h323c6 10 15 23 24 40 3-16 2-29-1-40h189z m-826 800" horiz-adv-x="1000" />

<glyph glyph-name="shore_bl" unicode="&#x67;" d="M806-45c3 11 4 24 1 40-9-17-18-30-24-40h-323c-1 12-2 30-2 55-17-20-21-41-21-55h-19c-17 23-40 49-58 46 9-19 12-34 11-46h-186c0 0-90 0-90 90v31c10 9 21 19 34 28-12 0-24-2-34-6v82c9 19 23 43 45 65-17 5-33 2-45-3v242c9 4 23 8 41 10-11 11-27 15-41 15v40c13 17 33 38 59 56-23 0-44-8-59-16v266h-100v-900-100h100 900v100h-189z" horiz-adv-x="1000" />

<glyph glyph-name="shore_blr" unicode="&#x68;" d="M895 855v-198c-10 3-21 5-33 5 13-9 24-18 33-27v-81c-13 6-31 11-50 5 27-27 42-57 50-77v-42c-17 2-40 2-56-15 32-3 48-12 56-20v-355c0-32-10-54-23-68-11 4-22 6-35 6 8-5 15-11 22-17-23-16-49-16-49-16h-4c3 11 4 24 1 40-9-17-18-30-24-40h-323c-1 12-2 30-2 55-17-20-21-41-21-55h-19c-17 23-40 49-58 46 9-19 12-34 11-46h-186c0 0-90 0-90 90v31c10 9 21 19 34 28-12 0-24-2-34-6v82c9 19 23 43 45 65-17 5-33 2-45-3v242c9 4 23 8 41 10-11 11-27 15-41 15v40c13 17 33 38 59 56-23 0-44-8-59-16v266h-100v-900-100h100 800 100v100 900h-100z" horiz-adv-x="1000" />

<glyph glyph-name="shore_br" unicode="&#x69;" d="M895 855v-198c-10 3-21 5-33 5 13-9 24-18 33-27v-81c-13 6-31 11-50 5 27-27 42-57 50-77v-42c-17 2-40 2-56-15 32-3 48-12 56-20v-355c0-32-10-54-23-68-11 3-22 6-35 6 8-6 15-11 22-17-23-16-49-16-49-16h-4c3 11 4 24 1 40-9-17-18-30-24-40h-323c-1 12-2 30-2 55-17-20-21-41-21-55h-19c-17 23-40 49-58 46 9-19 12-34 11-46h-239c-10 7-26 19-46 36 2-15 8-27 14-36h-105v-100h900 100v100 900h-100z" horiz-adv-x="1000" />

<glyph glyph-name="shore_l" unicode="&#x6a;" d="M140 245c-17 5-33 2-45-3v242c9 4 23 8 41 10-11 11-27 15-41 15v40c13 17 33 38 59 56-23 0-44-8-59-16v266h-100v-1000h100v221c10 9 21 19 34 28-12 0-24-2-34-6v82c9 19 23 43 45 65z" horiz-adv-x="1000" />

<glyph glyph-name="shore_r" unicode="&#x6b;" d="M895 855v-198c-10 3-21 5-33 5 13-9 24-18 33-27v-81c-13 6-31 11-50 5 27-27 42-57 50-77v-42c-17 2-40 2-56-15 32-3 48-12 56-20v-432c-15 7-35 15-58 15 25-17 45-38 58-55v-78h100v1000h-100z" horiz-adv-x="1000" />

<glyph glyph-name="shore_t" unicode="&#x6c;" d="M995 755h-222c-17-24-41-51-59-47 10 19 12 35 11 47h-167c2-9 3-20 1-32-8 13-15 23-20 32h-287c-1-12-1-31-1-55-17 20-21 41-22 55h-18c-7-10-16-25-27-44-3 17-1 32 3 44h-192v100h1000v-100z m-826 0" horiz-adv-x="1000" />

<glyph glyph-name="shore_tbl" unicode="&#x6d;" d="M773 755h222v100h-900-100v-100-800-100h100 900v100h-189c3 11 4 24 1 40-9-17-18-30-24-40h-323c-1 12-2 30-2 55-17-20-21-41-21-55h-19c-17 23-40 49-58 46 9-19 12-34 11-46h-186c0 0-90 0-90 90v31c10 9 21 19 34 28-12 0-24-2-34-6v82c9 19 23 43 45 65-17 5-33 2-45-3v242c9 4 23 8 41 10-11 11-27 15-41 15v40c13 17 33 38 59 56-23 0-44-8-59-16v96c0 70 78 70 78 70h14c-4-12-6-27-3-44 11 19 20 34 27 44h18c1-14 5-35 22-55 0 24 0 43 1 55h287c5-9 12-19 20-32 2 12 1 23-1 32h167c1-12-1-28-11-47 18-4 42 23 59 47z" horiz-adv-x="1000" />

<glyph glyph-name="shore_tblr" unicode="&#x6e;" d="M895 855h-800-100v-100-800-100h100 800 100v100 800 100h-100z m-88-860c-9-17-18-30-24-40h-323c-1 12-2 30-2 55-17-20-21-41-21-55h-19c-17 23-40 49-58 46 9-19 12-34 11-46h-186c0 0-90 0-90 90v31c10 9 21 19 34 28-12 0-24-2-34-6v82c9 19 23 43 45 65-17 5-33 2-45-3v242c9 4 23 8 41 10-11 11-27 15-41 15v40c13 17 33 38 59 56-23 0-44-8-59-16v96c0 70 78 70 78 70h14c-4-12-6-27-3-44 11 19 20 34 27 44h18c1-14 5-35 22-55 0 24 0 43 1 55h287c5-9 12-19 20-32 2 12 1 23-1 32h167c1-12-1-28-11-47 18-4 42 23 59 47h48c0 0 74 0 74-87v-11c-10 3-21 5-33 5 13-9 24-18 33-27v-81c-13 6-31 11-50 5 27-27 42-57 50-77v-42c-17 2-40 2-56-15 32-3 48-12 56-20v-355c0-32-10-54-23-68-11 4-22 6-35 6 8-5 15-11 22-17-23-16-49-16-49-16h-4c3 11 4 24 1 40z" horiz-adv-x="1000" />

<glyph glyph-name="shore_tbr" unicode="&#x6f;" d="M895 855h-900v-100h192c-4-12-6-27-3-44 11 19 20 34 27 44h18c1-14 5-35 22-55 0 24 0 43 1 55h287c5-9 12-19 20-32 2 12 1 23-1 32h167c1-12-1-28-11-47 18-4 42 23 59 47h48c0 0 74 0 74-87v-11c-10 3-21 5-33 5 13-9 24-18 33-27v-81c-13 6-31 11-50 5 27-27 42-57 50-77v-42c-17 2-40 2-56-15 32-3 48-12 56-20v-355c0-32-10-54-23-68-11 4-22 6-35 6 8-5 15-11 22-17-23-16-49-16-49-16h-4c3 11 4 24 1 40-9-17-18-30-24-40h-323c-1 12-2 30-2 55-17-20-21-41-21-55h-19c-17 23-40 49-58 46 9-19 12-34 11-46h-239c-10 7-26 19-46 36 2-15 8-27 14-36h-105v-100h900 100v100 800 100h-100z" horiz-adv-x="1000" />

<glyph glyph-name="shore_tl" unicode="&#x70;" d="M95 855h-100v-100-900h100v221c10 9 21 19 34 28-12 0-24-2-34-6v82c9 19 23 43 45 65-17 5-33 2-45-3v242c9 4 23 8 41 10-11 11-27 15-41 15v40c13 17 33 38 59 56-23 0-44-8-59-16v96c0 70 78 70 78 70h14c-4-12-6-27-3-44 11 19 20 34 27 44h18c1-14 5-35 22-55 0 24 1 43 1 55h287c5-9 12-19 20-32 2 12 1 23-1 32h167c1-12-1-28-11-47 18-4 42 23 59 47h222v100h-900z" horiz-adv-x="1000" />

<glyph glyph-name="shore_tlr" unicode="&#x71;" d="M895 855h-800-100v-100-900h100v221c10 9 21 19 34 28-12 0-24-2-34-6v82c9 19 23 43 45 65-17 5-33 2-45-3v242c9 4 23 8 41 10-11 11-27 15-41 15v40c13 17 33 38 59 56-23 0-44-8-59-16v96c0 70 78 70 78 70h14c-4-12-6-27-3-44 11 19 20 34 27 44h18c1-14 5-35 22-55 0 24 0 43 1 55h287c5-9 12-19 20-32 2 12 1 23-1 32h167c1-12-1-28-11-47 18-4 42 23 59 47h48c0 0 74 0 74-87v-11c-10 3-21 5-33 5 13-9 24-18 33-27v-81c-13 6-31 11-50 5 27-27 42-57 50-77v-42c-17 2-40 2-56-15 32-3 48-12 56-20v-432c-15 7-35 15-58 15 25-17 45-38 58-55v-78h100v900 100h-100z" horiz-adv-x="1000" />

<glyph glyph-name="shore_tr" unicode="&#x72;" d="M895 855h-900v-100h192c-4-12-6-27-3-44 11 19 20 34 27 44h18c1-14 5-35 22-55 0 24 1 43 1 55h287c5-9 12-19 20-32 2 12 1 23-1 32h167c1-12-1-28-11-47 18-4 42 23 59 47h48c0 0 74 0 74-87v-11c-10 3-21 5-33 5 13-9 24-18 33-27v-81c-13 6-31 11-50 5 27-27 42-57 50-77v-42c-17 2-40 2-56-15 32-3 48-12 56-20v-432c-15 7-35 15-58 15 25-17 45-38 58-55v-78h100v900 100h-100z" horiz-adv-x="1000" />

<glyph glyph-name="shorecorners_bl" unicode="&#x73;" d="M-5-45c100 0 100-100 100-100h-100" horiz-adv-x="1000" />

<glyph glyph-name="shorecorners_br" unicode="&#x74;" d="M895-145c0 100 100 100 100 100v-100" horiz-adv-x="1000" />

<glyph glyph-name="shorecorners_tl" unicode="&#x75;" d="M95 855c0-100-100-100-100-100v100" horiz-adv-x="1000" />

<glyph glyph-name="shorecorners_tr" unicode="&#x76;" d="M995 755c-100 0-100 100-100 100h100" horiz-adv-x="1000" />

<glyph glyph-name="tree1" unicode="&#x77;" d="M323 483l46 5-83 157 44 5-117 164-118-164 44-5-83-157 46-5-50-133 161-8 160 8-50 133z" horiz-adv-x="1000" />

<glyph glyph-name="tree2" unicode="&#x78;" d="M903 485l46 5-83 157 44 5-118 164-118-164 45-5-84-157 46-5-49-133 160-9 161 9-50 133z" horiz-adv-x="1000" />

<glyph glyph-name="tree3" unicode="&#x79;" d="M606 351l46 5-84 157 45 5-118 164-118-164 45-5-84-157 46-5-49-133 160-9 160 9-49 133z" horiz-adv-x="1000" />

<glyph glyph-name="tree4" unicode="&#x7a;" d="M415 190l46 5-83 157 44 5-118 164-117-164 44-5-84-157 46-5-49-133 160-8 161 8-50 133z" horiz-adv-x="1000" />
</font>
</defs>
</svg>
