<?xml version="1.0" encoding="utf-8"?>
<!-- Generator: Adobe Illustrator 13.0.0, SVG Export Plug-In . SVG Version: 6.00 Build 14948)  -->
<!DOCTYPE svg PUBLIC "-//W3C//DTD SVG 1.1//EN" "http://www.w3.org/Graphics/SVG/1.1/DTD/svg11.dtd">
<svg version="1.1" id="Layer_1" xmlns="http://www.w3.org/2000/svg" xmlns:xlink="http://www.w3.org/1999/xlink" x="0px" y="0px"
	 width="90px" height="90px" viewBox="0 0 90 90" enable-background="new 0 0 90 90" xml:space="preserve">
<path fill="#39B54A" d="M89.5,82.164c0,4.052-3.284,7.336-7.336,7.336H6.836c-4.052,0-7.336-3.284-7.336-7.336V6.836
	C-0.5,2.784,2.784-0.5,6.836-0.5h75.328c4.052,0,7.336,3.284,7.336,7.336V82.164z"/>
<path fill="#C1272D" d="M78.111,77.068H11.445V35.403h66.667V77.068z"/>
<path fill="#42210B" d="M82,36.931H7l25.178-25h24.644L82,36.931z"/>
<path fill="#603813" d="M30.855,77.068H18.909V59.432h11.945L30.855,77.068L30.855,77.068z"/>
<g>
	<path fill="#B0DEFF" d="M37.242,48.077H18.909v-8.194h18.333V48.077z"/>
	<path fill="#B0DEFF" d="M69.325,48.077H50.991v-8.194h18.334V48.077z"/>
	<path fill="#B0DEFF" d="M69.325,67.66H50.991v-8.194h18.334V67.66z"/>
</g>
</svg>
