<?xml version="1.0" encoding="utf-8"?>
<!-- Generator: Adobe Illustrator 13.0.0, SVG Export Plug-In . SVG Version: 6.00 Build 14948)  -->
<!DOCTYPE svg PUBLIC "-//W3C//DTD SVG 1.1//EN" "http://www.w3.org/Graphics/SVG/1.1/DTD/svg11.dtd">
<svg version="1.1" id="Layer_1" xmlns="http://www.w3.org/2000/svg" xmlns:xlink="http://www.w3.org/1999/xlink" x="0px" y="0px"
	 width="90px" height="90px" viewBox="0 0 90 90" enable-background="new 0 0 90 90" xml:space="preserve">
<path fill="#F2F2F2" d="M90,82.664C90,86.716,86.716,90,82.664,90H7.336C3.284,90,0,86.716,0,82.664V7.336C0,3.284,3.284,0,7.336,0
	h75.328C86.716,0,90,3.284,90,7.336V82.664z"/>
<path fill="#333333" d="M70.843,60.421v7.324c0.005,0.84-0.293,1.52-0.554,1.831c-0.108,0.136-0.198,0.203-0.237,0.229h-50.11
	c-0.153-0.094-0.808-0.851-0.781-2.061v-7.324h-9.122v7.324c0.007,2.813,0.894,5.443,2.553,7.527
	c1.628,2.07,4.252,3.658,7.306,3.653h50.209c0.006,0,0.011,0,0.018,0c3.046,0,5.664-1.587,7.289-3.653
	c1.658-2.084,2.544-4.714,2.55-7.527v-7.324H70.843z"/>
<rect x="39.406" y="11.074" fill="#333333" width="11.188" height="26.851"/>
<polygon fill="#333333" points="31.712,37.315 45,55.289 58.288,37.315 "/>
</svg>
