<?xml version="1.0" encoding="utf-8"?>
<!-- Generator: Adobe Illustrator 13.0.0, SVG Export Plug-In . SVG Version: 6.00 Build 14948)  -->
<!DOCTYPE svg PUBLIC "-//W3C//DTD SVG 1.1//EN" "http://www.w3.org/Graphics/SVG/1.1/DTD/svg11.dtd">
<svg version="1.1" id="Layer_1" xmlns="http://www.w3.org/2000/svg" xmlns:xlink="http://www.w3.org/1999/xlink" x="0px" y="0px"
	 width="90px" height="90px" viewBox="0 0 90 90" enable-background="new 0 0 90 90" xml:space="preserve">
<path fill="#39B54A" d="M89.5,82.164c0,4.052-3.284,7.336-7.336,7.336H6.836c-4.052,0-7.336-3.284-7.336-7.336V6.836
	C-0.5,2.784,2.784-0.5,6.836-0.5h75.328c4.052,0,7.336,3.284,7.336,7.336V82.164z"/>
<path fill="#4D4D4D" d="M22-0.5h45c0,0,0,4.5,0,13.5s9,9,9,9h13.5v45c0,0-4.52,0-13.5,0s-9,9-9,9v13.5H22"/>
<path fill="#FFFFFF" d="M22.675,89.5"/>
<g>
	<path fill="#E6E6E6" d="M43.15,89.5V85h2.7v4.5H43.15z"/>
	<path fill="#E6E6E6" d="M43.15,67v9h2.7v-9H43.15z"/>
	<path fill="#E6E6E6" d="M43.15,49v9h2.7v-9H43.15z"/>
	<path fill="#E6E6E6" d="M43.15,31v9h2.7v-9H43.15z"/>
	<path fill="#E6E6E6" d="M43.15,13v9h2.7v-9H43.15z"/>
	<path fill="#E6E6E6" d="M45.852-0.5V4h-2.701v-4.5H45.852z"/>
	<path fill="#E6E6E6" d="M89.5,45.85H85v-2.7h4.5V45.85z"/>
	<path fill="#E6E6E6" d="M67,45.85h9v-2.7h-9V45.85z"/>
</g>
</svg>
