<?xml version="1.0" encoding="utf-8"?>
<!-- Generator: Adobe Illustrator 13.0.0, SVG Export Plug-In . SVG Version: 6.00 Build 14948)  -->
<!DOCTYPE svg PUBLIC "-//W3C//DTD SVG 1.1//EN" "http://www.w3.org/Graphics/SVG/1.1/DTD/svg11.dtd">
<svg version="1.1" id="Layer_1" xmlns="http://www.w3.org/2000/svg" xmlns:xlink="http://www.w3.org/1999/xlink" x="0px" y="0px"
	 width="90px" height="90px" viewBox="0 0 90 90" enable-background="new 0 0 90 90" xml:space="preserve">
<path fill="#39B54A" d="M90,82.664C90,86.716,86.716,90,82.664,90H7.336C3.284,90,0,86.716,0,82.664V7.336C0,3.284,3.284,0,7.336,0
	h75.328C86.716,0,90,3.284,90,7.336V82.664z"/>
<path fill="#504B48" d="M66.753,38.766L57.727,58.84L35.974,10.459L4.916,79.541H48.42h18.613h18.051L66.753,38.766z"/>
<path fill="#E6E6E6" d="M35.974,10.459L22.849,39.654l1.801,1.808h0.008l5.834-5.857l5.811,5.832l5.81-5.832l5.811,5.832
	l1.361-1.367L35.974,10.459z"/>
<path fill="#E6E6E6" d="M73.799,54.441l-7.048-15.676l-7.03,15.639l1.243,1.248h0.011l5.832-5.856l5.812,5.831L73.799,54.441z"/>
</svg>
