<?xml version="1.0" encoding="utf-8"?>
<!-- Generator: Adobe Illustrator 13.0.0, SVG Export Plug-In . SVG Version: 6.00 Build 14948)  -->
<!DOCTYPE svg PUBLIC "-//W3C//DTD SVG 1.1//EN" "http://www.w3.org/Graphics/SVG/1.1/DTD/svg11.dtd">
<svg version="1.1" id="Layer_1" xmlns="http://www.w3.org/2000/svg" xmlns:xlink="http://www.w3.org/1999/xlink" x="0px" y="0px"
	 width="90px" height="90px" viewBox="0 0 90 90" enable-background="new 0 0 90 90" xml:space="preserve">
<path fill="#39B54A" d="M89.5,82.164c0,4.052-3.284,7.336-7.336,7.336H6.836c-4.052,0-7.336-3.284-7.336-7.336V6.836
	C-0.5,2.784,2.784-0.5,6.836-0.5h75.328c4.052,0,7.336,3.284,7.336,7.336V82.164z"/>
<path fill="#009245" d="M39.126,20.688c0,0-1.928-3.132,2.507-8.62c-6.408-0.909-13.712,7.654-13.712,7.654
	s-5.48-6.323-12.409-6.986c3.314,7.167,4.217,9.036,4.217,9.036S12.74,17.555,2.5,21.771c7.314,0.563,11.666,4.818,13.762,7.592
	c3.935-0.04,6.341,1.403,6.341,1.403s-0.679-1.406-3.17-6.797c5.21,0.499,9.333,5.256,9.333,5.256s5.491-6.44,10.312-5.757
	c-3.334,4.126-1.885,6.483-1.885,6.483s2.6-1.524,5.701-1.963c1.565-3.059,4.375-7.246,8.881-9.71
	C45.871,16.711,39.126,20.688,39.126,20.688z"/>
<path fill="#009245" d="M72.501,58.438c0,0-1.928-3.133,2.507-8.619c-6.408-0.909-13.712,7.654-13.712,7.654
	s-5.479-6.324-12.409-6.986c3.314,7.168,4.217,9.037,4.217,9.037s-6.987-4.219-17.229-0.002c7.314,0.563,11.666,4.817,13.762,7.593
	c3.936-0.04,6.342,1.403,6.342,1.403s-0.68-1.406-3.172-6.799c5.211,0.499,9.334,5.256,9.334,5.256s5.49-6.438,10.313-5.756
	c-3.334,4.125-1.885,6.482-1.885,6.482s2.6-1.523,5.701-1.963c1.564-3.061,4.375-7.246,8.881-9.711
	C79.246,54.461,72.501,58.438,72.501,58.438z"/>
</svg>
