<?xml version="1.0" encoding="utf-8"?>
<!-- Generator: Adobe Illustrator 13.0.0, SVG Export Plug-In . SVG Version: 6.00 Build 14948)  -->
<!DOCTYPE svg PUBLIC "-//W3C//DTD SVG 1.1//EN" "http://www.w3.org/Graphics/SVG/1.1/DTD/svg11.dtd">
<svg version="1.1" id="Layer_1" xmlns="http://www.w3.org/2000/svg" xmlns:xlink="http://www.w3.org/1999/xlink" x="0px" y="0px"
	 width="90px" height="90px" viewBox="0 0 90 90" enable-background="new 0 0 90 90" xml:space="preserve">
<path fill="#29ABE2" d="M89.5,82.164c0,4.052-3.284,7.336-7.336,7.336H6.836c-4.052,0-7.336-3.284-7.336-7.336V6.836
	C-0.5,2.784,2.784-0.5,6.836-0.5h75.328c4.052,0,7.336,3.284,7.336,7.336V82.164z"/>
<path opacity="0.8" fill="#79C8E9" enable-background="new    " d="M69.5,1.883c0,2.892-5.598,5.235-12.5,5.235
	S44.5,4.774,44.5,1.883c0,2.892-5.597,5.235-12.5,5.235S19.5,4.774,19.5,1.883c0,2.892-5.597,5.235-12.5,5.235
	c-2.8,0-5.376-0.391-7.46-1.042C-0.486,6.326-0.5,6.58-0.5,6.836v4.227c2.091,0.659,4.682,1.054,7.5,1.054
	c6.903,0,12.5-2.344,12.5-5.235c0,2.892,5.597,5.235,12.5,5.235s12.5-2.344,12.5-5.235c0,2.892,5.596,5.235,12.5,5.235
	c6.902,0,12.5-2.344,12.5-5.235c0,2.892,5.596,5.235,12.5,5.235c2.816,0,5.409-0.396,7.5-1.055V6.836c0-0.257-0.014-0.51-0.039-0.76
	C87.377,6.728,84.8,7.118,82,7.118C75.098,7.118,69.5,4.774,69.5,1.883z"/>
<path opacity="0.8" fill="#79C8E9" enable-background="new    " d="M89.5,31.063c-2.091,0.659-4.684,1.055-7.5,1.055
	c-6.902,0-12.5-2.344-12.5-5.235c0,2.892-5.598,5.235-12.5,5.235s-12.5-2.344-12.5-5.235c0,2.892-5.597,5.235-12.5,5.235
	s-12.5-2.344-12.5-5.235c0,2.892-5.597,5.235-12.5,5.235c-2.818,0-5.409-0.396-7.5-1.054v4.999c2.091,0.659,4.682,1.054,7.5,1.054
	c6.903,0,12.5-2.344,12.5-5.235c0,2.892,5.597,5.235,12.5,5.235s12.5-2.344,12.5-5.235c0,2.892,5.596,5.235,12.5,5.235
	c6.902,0,12.5-2.344,12.5-5.235c0,2.892,5.596,5.235,12.5,5.235c2.816,0,5.409-0.396,7.5-1.055V31.063z"/>
<path opacity="0.8" fill="#79C8E9" enable-background="new    " d="M89.5,56.063c-2.091,0.66-4.684,1.057-7.5,1.057
	c-6.902,0-12.5-2.346-12.5-5.235c0,2.894-5.598,5.235-12.5,5.235s-12.5-2.346-12.5-5.235c0,2.894-5.597,5.235-12.5,5.235
	s-12.5-2.346-12.5-5.235c0,2.894-5.597,5.235-12.5,5.235c-2.818,0-5.409-0.396-7.5-1.057v5c2.091,0.658,4.682,1.056,7.5,1.056
	c6.903,0,12.5-2.345,12.5-5.235c0,2.893,5.597,5.235,12.5,5.235s12.5-2.345,12.5-5.235c0,2.893,5.596,5.235,12.5,5.235
	c6.902,0,12.5-2.345,12.5-5.235c0,2.893,5.596,5.235,12.5,5.235c2.816,0,5.409-0.396,7.5-1.056V56.063z"/>
<path opacity="0.8" fill="#79C8E9" enable-background="new    " d="M82,82.118c-6.902,0-12.5-2.345-12.5-5.235
	c0,2.893-5.598,5.235-12.5,5.235s-12.5-2.345-12.5-5.235c0,2.893-5.597,5.235-12.5,5.235s-12.5-2.345-12.5-5.235
	c0,2.893-5.597,5.235-12.5,5.235c-2.818,0-5.409-0.396-7.5-1.056v1.102c0,1.602,0.518,3.076,1.388,4.281
	C2.696,86.872,4.779,87.117,7,87.117c6.903,0,12.5-2.344,12.5-5.235c0,2.892,5.597,5.235,12.5,5.235s12.5-2.344,12.5-5.235
	c0,2.892,5.596,5.235,12.5,5.235c6.902,0,12.5-2.344,12.5-5.235c0,2.892,5.596,5.235,12.5,5.235c2.223,0,4.305-0.245,6.111-0.672
	c0.871-1.205,1.389-2.68,1.389-4.281v-1.102C87.409,81.723,84.816,82.118,82,82.118z"/>
</svg>
